<svg width="803" height="803" viewBox="0 0 803 803" fill="none" xmlns="http://www.w3.org/2000/svg">
<path d="M692.05 559.09C656.77 440.89 452.62 308.34 428.35 292.93C426.81 291.95 425.24 291.06 423.62 290.23C267.52 210.79 181.34 189.42 134.06 188.23C97.02 187.3 68.82 221.96 78.47 257.74C110.77 377.45 335.99 520.3 361.46 536.14C362.98 537.08 364.53 537.95 366.13 538.75C510.49 610.95 592.04 630.36 637.93 630.7C675.51 630.98 702.8 595.1 692.05 559.09ZM357.65 526.75C333.79 512.06 134.66 386.95 97.38 278.28C84.71 241.34 114.71 203.51 153.7 205.83C199.05 208.52 278.39 229.53 416.46 298.88C418.12 299.71 419.74 300.63 421.31 301.62C444.48 316.2 624.3 432.02 663.3 538.72C676.91 575.95 648.03 615.01 608.44 613.26C564.57 611.33 489.69 592.19 362.34 529.34C360.74 528.55 359.18 527.69 357.66 526.75H357.65Z" fill="white" stroke="white" stroke-miterlimit="10"/>
<path d="M438.12 740.51C517.17 645.85 515.8 403.12 515.35 374.34C515.32 372.51 515.2 370.69 515 368.87C495.69 195.39 466.34 111.62 441.41 71.3C421.8 39.58 376.87 35 352.22 62.99C270.28 156.06 274.61 421.99 275.37 452.02C275.42 453.82 275.54 455.6 275.76 457.39C294.67 617.1 323.11 695.92 347.98 734.59C368.43 766.41 413.88 769.54 438.13 740.51H438.12ZM281.12 443.68C280.28 415.64 275.47 181.27 345.44 90.14C369.38 58.96 417.99 63.31 437.5 97.43C460.1 136.95 486 214.77 503.84 367.63C504.06 369.49 504.18 371.35 504.22 373.22C504.77 400.61 506.75 613.8 439.36 705.22C415.69 737.33 366.67 734.62 346.34 700.3C323.92 662.45 298.91 589.4 281.54 449.04C281.32 447.25 281.18 445.47 281.13 443.67L281.12 443.68Z" fill="white" stroke="white" stroke-miterlimit="10"/>
<path d="M392.54 476.58C429.609 476.58 459.66 446.529 459.66 409.46C459.66 372.391 429.609 342.34 392.54 342.34C355.471 342.34 325.42 372.391 325.42 409.46C325.42 446.529 355.471 476.58 392.54 476.58Z" fill="white"/>
<path d="M682.48 196.5C561.05 174.86 350.95 297.02 326.22 311.73C324.65 312.66 323.14 313.67 321.66 314.75C180.58 418 122.57 485.2 100.08 526.88C82.42 559.61 100.73 600.65 137.15 608.14C258.61 633.1 487.39 496.81 513.04 481.21C514.57 480.28 516.05 479.28 517.49 478.21C646.82 382.16 700.99 318.21 722.09 277.41C739.41 243.91 719.6 203.13 682.47 196.51L682.48 196.5ZM502.95 480.36C479.06 495.04 277.89 616.04 164.06 600.5C125.23 595.2 104.9 551.09 124.68 517.26C147.64 478 202.22 416.74 326.15 325.03C327.65 323.92 329.2 322.89 330.8 321.93C354.28 307.83 538.47 199.84 651.29 212.97C690.8 217.57 712.74 261.22 693.19 295.86C671.58 334.14 620.69 392.25 507.38 477.34C505.94 478.42 504.47 479.42 502.94 480.36H502.95Z" fill="white"/>
<path d="M296.22 250.4C304.769 250.4 311.7 243.469 311.7 234.92C311.7 226.371 304.769 219.44 296.22 219.44C287.671 219.44 280.74 226.371 280.74 234.92C280.74 243.469 287.671 250.4 296.22 250.4Z" fill="white" stroke="white" stroke-miterlimit="10"/>
<path d="M504.35 369.44C512.899 369.44 519.83 362.509 519.83 353.96C519.83 345.411 512.899 338.48 504.35 338.48C495.801 338.48 488.87 345.411 488.87 353.96C488.87 362.509 495.801 369.44 504.35 369.44Z" fill="white" stroke="white" stroke-miterlimit="10"/>
<path d="M234.12 611.16C242.669 611.16 249.6 604.229 249.6 595.68C249.6 587.131 242.669 580.2 234.12 580.2C225.571 580.2 218.64 587.131 218.64 595.68C218.64 604.229 225.571 611.16 234.12 611.16Z" fill="white" stroke="white" stroke-miterlimit="10"/>
</svg>
