<?xml version="1.0" standalone="no"?>
<!DOCTYPE svg PUBLIC "-//W3C//DTD SVG 20010904//EN"
 "http://www.w3.org/TR/2001/REC-SVG-20010904/DTD/svg10.dtd">
<svg version="1.0" xmlns="http://www.w3.org/2000/svg"
 width="730.000000pt" height="217.000000pt" viewBox="0 0 730.000000 217.000000"
 preserveAspectRatio="xMidYMid meet">

<g transform="translate(0.000000,217.000000) scale(0.100000,-0.100000)"
fill="#000000" stroke="none">
<path d="M671 2132 c-13 -25 -671 -2061 -671 -2077 0 -8 7 -21 16 -29 13 -14
47 -16 219 -16 241 0 215 -15 265 155 17 61 39 116 48 122 12 10 99 13 358 13
311 0 344 -2 362 -17 12 -12 30 -57 47 -123 43 -163 20 -150 253 -150 211 0
222 2 222 49 0 24 -633 2038 -652 2074 -8 15 -30 17 -233 17 -205 0 -225 -2
-234 -18z m246 -820 c11 -7 183 -495 183 -520 0 -6 -7 -18 -16 -26 -13 -13
-44 -16 -185 -16 -174 0 -209 6 -209 38 0 24 158 481 176 510 15 23 30 27 51
14z"/>
<path d="M1684 2142 c-28 -19 -34 -56 -34 -227 0 -160 5 -200 27 -225 3 -3
148 -7 323 -10 270 -4 322 -7 335 -20 13 -14 16 -116 23 -812 7 -770 8 -797
27 -818 19 -20 25 -21 221 -18 182 3 204 5 223 22 l21 19 0 792 c0 667 2 794
14 811 13 17 31 20 170 24 l156 5 67 77 c186 211 397 337 597 357 34 3 61 11
64 19 3 9 -223 12 -1110 12 -612 0 -1118 -4 -1124 -8z"/>
<path d="M5095 2127 c-13 -21 -15 -86 -15 -503 1 -475 -5 -615 -34 -725 -88
-336 -314 -603 -627 -741 -81 -36 -268 -88 -371 -103 -29 -5 -38 -11 -38 -25
0 -20 12 -20 729 -20 658 0 730 2 742 16 11 13 13 127 10 619 -3 557 -2 603
14 619 10 9 25 16 34 14 9 -2 135 -190 281 -420 146 -229 275 -430 288 -447
16 -22 31 -31 51 -31 26 0 47 30 306 433 153 237 285 440 295 451 19 19 54 15
63 -7 3 -7 1 -280 -3 -607 -6 -499 -5 -599 7 -618 13 -22 16 -22 228 -22 181
0 216 2 229 16 14 14 16 123 16 1050 0 695 -3 1042 -10 1055 -10 18 -24 19
-269 19 -233 0 -259 -2 -273 -17 -8 -10 -140 -219 -293 -465 -173 -280 -285
-450 -297 -454 -11 -3 -25 -1 -30 4 -6 6 -135 217 -287 469 l-277 458 -227 3
-226 2 -16 -23z"/>
<path d="M3983 1936 c-62 -28 -131 -163 -169 -331 -10 -44 -18 -81 -19 -82 -1
-2 -46 12 -101 31 -189 63 -301 71 -351 25 -61 -58 -66 -115 -16 -212 34 -69
71 -116 164 -212 l78 -80 -80 -84 c-146 -155 -183 -235 -141 -311 11 -19 35
-44 53 -55 49 -29 182 -25 309 8 52 14 96 24 98 22 1 -1 14 -43 27 -92 51
-193 103 -283 176 -304 107 -32 191 59 254 277 14 48 27 90 30 92 2 2 32 -5
67 -17 166 -55 278 -65 333 -31 37 23 65 74 65 117 0 51 -65 167 -151 268
l-82 98 80 73 c136 124 233 257 233 320 0 40 -30 94 -64 115 -67 40 -199 35
-371 -17 -49 -14 -97 -28 -105 -30 -12 -4 -21 21 -43 108 -32 132 -94 267
-133 293 -37 24 -101 29 -141 11z m114 -76 c40 -24 84 -108 117 -222 41 -146
41 -136 -1 -153 -28 -12 -56 -14 -118 -9 -44 3 -99 1 -123 -4 -38 -9 -51 -7
-98 14 -30 13 -54 29 -54 35 0 31 45 182 71 235 54 114 129 151 206 104z
m-551 -311 c32 -5 100 -24 151 -40 l92 -30 -6 -52 c-5 -39 -15 -63 -44 -99
-34 -44 -79 -140 -79 -171 0 -7 -17 -25 -37 -41 l-37 -30 -80 86 c-104 110
-148 183 -154 252 -4 46 -1 56 24 85 43 52 70 58 170 40z m1149 -21 c41 -19
68 -72 63 -122 -7 -58 -50 -120 -165 -235 l-93 -94 -29 27 c-17 16 -34 47 -41
73 -15 60 -44 118 -86 170 -21 25 -38 60 -43 86 l-8 45 86 25 c47 14 95 28
106 30 43 10 186 6 210 -5z m-825 -86 c0 -8 -61 -44 -65 -40 -2 2 0 17 2 35 5
30 6 31 34 21 16 -5 29 -13 29 -16z m390 -2 c0 -18 -3 -19 -21 -9 -17 9 -19
13 -8 20 22 14 29 11 29 -11z m-601 -404 c1 -5 -8 -1 -19 9 -16 14 -17 20 -8
26 12 8 25 -10 27 -35z m803 19 c0 -5 -5 -11 -11 -13 -6 -2 -11 4 -11 13 0 9
5 15 11 13 6 -2 11 -8 11 -13z m-821 -42 c14 -16 34 -50 44 -77 9 -26 37 -72
61 -102 33 -40 45 -64 50 -102 l6 -49 -63 -18 c-95 -27 -234 -32 -275 -10 -71
38 -83 125 -26 207 42 61 151 178 166 178 7 0 24 -12 37 -27z m920 -56 c74
-88 119 -173 119 -226 0 -33 -7 -49 -34 -79 -33 -36 -37 -37 -103 -37 -40 0
-104 10 -156 24 l-88 24 6 56 c5 40 15 68 36 96 17 22 45 72 64 111 32 67 67
106 90 100 6 -1 35 -32 66 -69z m-671 -239 c0 -4 -3 -8 -7 -8 -5 0 -18 -3 -29
-6 -18 -5 -22 -1 -26 24 l-4 30 33 -16 c18 -9 33 -19 33 -24z m379 15 c0 -10
-3 -26 -7 -35 -6 -15 -10 -15 -42 -1 l-35 15 35 18 c44 24 50 24 49 3z m-214
-38 c77 -2 111 -8 148 -24 47 -20 48 -22 42 -53 -16 -73 -68 -188 -103 -228
-31 -35 -45 -43 -82 -47 -85 -8 -138 54 -189 222 -12 39 -24 78 -27 88 -4 13
5 22 38 36 24 11 50 17 58 14 8 -4 60 -7 115 -8z"/>
</g>
</svg>
